<svg width="64" height="64" viewBox="0 0 64 64" fill="none" xmlns="http://www.w3.org/2000/svg">
  <defs>
    <linearGradient id="omGradient" x1="0%" y1="0%" x2="100%" y2="100%">
      <stop offset="0%" style="stop-color:#8b5cf6;stop-opacity:1" />
      <stop offset="100%" style="stop-color:#6366f1;stop-opacity:1" />
    </linearGradient>
  </defs>
  <!-- Om Symbol -->
  <path d="M32 8C18.745 8 8 18.745 8 32s10.745 24 24 24 24-10.745 24-24S45.255 8 32 8zm0 44c-11.046 0-20-8.954-20-20s8.954-20 20-20 20 8.954 20 20-8.954 20-20 20z" fill="url(#omGradient)"/>
  <path d="M32 16c-6.627 0-12 5.373-12 12 0 2.209.599 4.282 1.643 6.071L26.5 30.5c-.828-1.121-1.5-2.5-1.5-4 0-3.314 2.686-6 6-6s6 2.686 6 6c0 1.5-.672 2.879-1.5 4l5.857-3.571C43.401 32.282 44 30.209 44 28c0-6.627-5.373-12-12-12z" fill="url(#omGradient)"/>
  <circle cx="32" cy="38" r="3" fill="url(#omGradient)"/>
  <path d="M28 42h8v4h-8z" fill="url(#omGradient)"/>
</svg>